<svg xmlns="http://www.w3.org/2000/svg" width="60" height="60" fill="none"><path fill="#000" d="M55.95 55.2h-.449a4.297 4.297 0 0 0-3.616-3.193V36.162h.25a2.11 2.11 0 0 0 2.108-2.107 2.11 2.11 0 0 0-2.108-2.108h-.25V15.162h1.15c.843 0 1.53-.686 1.53-1.53v-1.746l-.001-.012-.002-.034a.84.84 0 0 0-.022-.155l-.003-.014L52.28 2.98a1.611 1.611 0 0 0-1.56-1.206h-5.754a.854.854 0 1 0 0 1.708h5.68l1.96 7.551H39.302L34.26 3.48h5.375a.854.854 0 1 0 0-1.707H33.12l-.108-.163A3.614 3.614 0 0 0 29.998 0a3.613 3.613 0 0 0-3.01 1.61l-.11.163H9.28c-.734 0-1.375.496-1.56 1.206L5.462 11.67l-.003.014a.82.82 0 0 0-.013.064l-.004.031a.836.836 0 0 0-.005.06l-.002.034v1.758c0 .844.686 1.53 1.529 1.53h1.15v16.785h-.25a2.11 2.11 0 0 0-2.108 2.108 2.11 2.11 0 0 0 2.108 2.107h.25v5.472a.854.854 0 1 0 1.708 0v-5.472h40.355v15.154l-.02-.01a4.793 4.793 0 0 0-.255-.14l-.05-.024a4.838 4.838 0 0 0-.552-.232l-.015-.005a4.958 4.958 0 0 0-.279-.087l-.077-.02a4.974 4.974 0 0 0-.228-.054l-.066-.015a4.958 4.958 0 0 0-.287-.048l-.063-.008a5.038 5.038 0 0 0-.616-.04 4.994 4.994 0 0 0-4.343 2.569c-.1-.003-.198 0-.295.005-.023.001-.045.004-.068.006a3.952 3.952 0 0 0-.222.022l-.08.012a3.642 3.642 0 0 0-.485.11l-.076.023a3.502 3.502 0 0 0-.204.074c-.02.007-.04.014-.06.023-.083.034-.164.07-.244.11l-.01.005c-.086.043-.17.09-.252.14l-.023.014a3.2 3.2 0 0 0-.206.137c-.022.015-.043.032-.064.048-.052.039-.104.08-.154.121l-.072.062a3.676 3.676 0 0 0-.329.33l-.062.072a3.632 3.632 0 0 0-.124.16l-.047.06c-.103.147-.198.3-.28.463h-4.155v-14.63c0-.836-.68-1.516-1.516-1.516h-8.596c-.836 0-1.516.68-1.516 1.516v14.631H17.08c-.022-.055-.047-.108-.071-.162l-.03-.069a4.346 4.346 0 0 0-.132-.258c-.01-.016-.02-.03-.028-.046a4.29 4.29 0 0 0-.121-.2l-.055-.08a4.253 4.253 0 0 0-.49-.595 4.196 4.196 0 0 0-.223-.21l-.06-.054a4.34 4.34 0 0 0-.224-.177c-.008-.006-.016-.01-.024-.017a4.147 4.147 0 0 0-.211-.143l-.08-.049a4.222 4.222 0 0 0-.166-.096 4.186 4.186 0 0 0-.529-.243l-.103-.038a3.993 3.993 0 0 0-.188-.06c-.03-.01-.06-.02-.09-.028a4.353 4.353 0 0 0-.284-.069 5.373 5.373 0 0 0-.192-.246c-.022-.027-.046-.053-.07-.08-.044-.051-.088-.103-.134-.153l-.089-.09-.127-.13-.1-.09c-.042-.038-.084-.077-.127-.114l-.108-.088-.13-.104-.115-.083-.133-.094-.12-.077c-.046-.028-.091-.057-.137-.084-.041-.025-.084-.048-.126-.071a3.785 3.785 0 0 0-.14-.076c-.043-.023-.087-.043-.13-.064-.048-.023-.096-.046-.144-.067l-.135-.057-.147-.059-.138-.049-.15-.05c-.047-.015-.095-.028-.142-.041-.051-.014-.102-.029-.154-.042a5.348 5.348 0 0 0-.447-.09 5.328 5.328 0 0 0-.62-.063l-.093-.005V46.94a.854.854 0 1 0-1.708 0v3.733A5.334 5.334 0 0 0 4.394 55.2h-.345a2.403 2.403 0 0 0-2.4 2.4 2.403 2.403 0 0 0 2.4 2.401h51.902c1.323 0 2.4-1.077 2.4-2.4 0-1.324-1.077-2.4-2.4-2.4ZM28.047 3.1l.362-.542a1.91 1.91 0 0 1 3.181 0l5.658 8.474h-.61L31.236 2.94A1.483 1.483 0 0 0 30 2.28c-.498 0-.96.246-1.236.66l-5.403 8.092h-.61l1.029-1.54L28.047 3.1Zm6.538 7.932h-9.17L30 4.164l4.585 6.868ZM9.353 3.48H25.74l-1.188 1.78-3.854 5.772H7.392L9.353 3.48Zm-2.21 9.974v-.714h45.714v.714H7.142Zm43.034 1.708v16.785H9.822V15.162h40.355ZM7.864 34.455a.4.4 0 0 1 0-.8h44.271a.4.4 0 0 1 0 .8H7.864Zm34.372 20.728c.037-.022.075-.044.113-.063a1.873 1.873 0 0 1 .316-.126l.072-.02a1.07 1.07 0 0 1 .098-.022l.072-.015c.042-.007.085-.012.127-.017l.062-.006a2.75 2.75 0 0 1 .158-.005c.04 0 .08.004.12.007.027.002.055.002.082.005.067.008.134.018.201.033a.854.854 0 0 0 .978-.528 3.27 3.27 0 0 1 3.034-2.085c.931 0 1.82.402 2.438 1.103.024.027.05.053.078.078l.005.003a.85.85 0 0 0 .705.195 2.58 2.58 0 0 1 2.803 1.48h-11.49c.01-.007.02-.012.03-.017Zm-8.13-14.424V55.2h-8.213V40.76h8.213ZM9.116 52.19c.09-.014.18-.025.27-.032l.024-.002a3.596 3.596 0 0 1 3.339 1.69c.14.222.373.368.635.395.06.007.121.016.181.027l.04.007c.06.012.117.025.174.04l.023.006c.052.015.103.03.153.048l.035.012c.055.02.109.042.162.065l.03.015c.048.021.094.044.14.069l.026.013c.05.028.1.057.148.088l.033.022c.046.03.09.061.134.094l.011.008a2.521 2.521 0 0 1 .289.258l.01.011c.037.04.073.08.108.122l.025.03.018.024h-9.01a3.621 3.621 0 0 1 3.003-3.01Zm46.834 6.103H4.05a.693.693 0 0 1 0-1.385h51.9a.693.693 0 0 1 0 1.385Z"/><path fill="#000" d="M21.822 27.137h-.391v-7.704c0-.671-.546-1.217-1.217-1.217H13.26c-.671 0-1.217.546-1.217 1.217v7.704h-.39a.854.854 0 1 0 0 1.708h10.17a.854.854 0 1 0 0-1.708Zm-2.099 0H13.75v-7.213h5.973v7.213Zm15.394 0h-.39v-7.704a1.22 1.22 0 0 0-1.217-1.217h-6.956c-.67 0-1.216.546-1.216 1.217v7.704h-.392a.854.854 0 1 0 0 1.708h10.171a.854.854 0 0 0 0-1.708Zm-2.099 0h-5.973v-7.213h5.973v7.213Zm15.33 0h-.391v-7.704c0-.671-.546-1.217-1.216-1.217h-6.956c-.67 0-1.216.546-1.216 1.217v7.704h-.392a.854.854 0 1 0 0 1.708h10.171a.854.854 0 1 0 0-1.708Zm-2.099 0h-5.973v-7.213h5.973v7.213ZM21.423 48.496h-.061v-7.037c0-.652-.531-1.183-1.183-1.183h-6.315c-.653 0-1.183.531-1.183 1.183v7.037h-.062a.854.854 0 1 0 0 1.708h8.804a.854.854 0 1 0 0-1.708Zm-1.77 0h-5.265v-6.512h5.266v6.512Zm27.727 0h-.061v-7.037c0-.652-.531-1.183-1.183-1.183H39.82c-.652 0-1.183.531-1.183 1.183v7.037h-.062a.854.854 0 1 0 0 1.708h8.804a.854.854 0 1 0 0-1.708Zm-1.77 0h-5.265v-6.512h5.266v6.512Zm-13.203-1.025a.854.854 0 0 0-.853.854v1.48a.854.854 0 1 0 1.707 0v-1.48a.854.854 0 0 0-.854-.854Z"/></svg>