<svg xmlns="http://www.w3.org/2000/svg" width="16" height="14" fill="none"><path fill="#000" d="M4.656.75v2.5a.74.74 0 0 1-.75.75H.75A.722.722 0 0 1 0 3.25V.75A.74.74 0 0 1 .75 0h3.156a.76.76 0 0 1 .75.75Zm5.657 7.5a.74.74 0 0 1-.75.75H6.405a.74.74 0 0 1-.75-.75v-2.5a.76.76 0 0 1 .75-.75h3.157a.76.76 0 0 1 .75.75v2.5Zm1-7.5a.76.76 0 0 1 .75-.75h3.187a.76.76 0 0 1 .75.75v2.5a.74.74 0 0 1-.75.75h-3.188a.74.74 0 0 1-.75-.75V.75Zm-1 2.5a.74.74 0 0 1-.75.75H6.405a.74.74 0 0 1-.75-.75V.75a.76.76 0 0 1 .75-.75h3.157a.76.76 0 0 1 .75.75v2.5ZM3.905 5a.76.76 0 0 1 .75.75v2.5a.74.74 0 0 1-.75.75H.75A.722.722 0 0 1 0 8.25v-2.5A.74.74 0 0 1 .75 5h3.156ZM0 10.75A.74.74 0 0 1 .75 10h3.156a.76.76 0 0 1 .75.75v2.5a.74.74 0 0 1-.75.75H.75a.722.722 0 0 1-.75-.75v-2.5ZM12.063 9a.74.74 0 0 1-.75-.75v-2.5a.76.76 0 0 1 .75-.75h3.187a.76.76 0 0 1 .75.75v2.5a.74.74 0 0 1-.75.75h-3.188Zm0 5a.74.74 0 0 1-.75-.75v-2.5a.76.76 0 0 1 .75-.75h3.187a.76.76 0 0 1 .75.75v2.5a.74.74 0 0 1-.75.75h-3.188Zm-6.407-3.25a.76.76 0 0 1 .75-.75h3.157a.76.76 0 0 1 .75.75v2.5a.74.74 0 0 1-.75.75H6.405a.74.74 0 0 1-.75-.75v-2.5Z"/></svg>